<?xml version="1.0" encoding="UTF-8" standalone="no"?>
<svg xmlns:rdf="http://www.w3.org/1999/02/22-rdf-syntax-ns#" xmlns="http://www.w3.org/2000/svg" enable-background="new 281.111 125.333 292.434 77.972" xml:space="preserve" height="90" viewBox="281.111 125.333 90.000003 90" width="90" version="1.1" y="0px" x="0px" xmlns:cc="http://creativecommons.org/ns#" xmlns:dc="http://purl.org/dc/elements/1.1/"><metadata><rdf:RDF><cc:Work rdf:about=""><dc:format>image/svg+xml</dc:format><dc:type rdf:resource="http://purl.org/dc/dcmitype/StillImage"/><dc:title/></cc:Work></rdf:RDF></metadata><g transform="translate(-0.394,12.463005)"><g transform="translate(1.9780001,-1.9780036)"><linearGradient id="SVGID_1_" y2="148.24" gradientUnits="userSpaceOnUse" x2="299.7" gradientTransform="matrix(1,0,0,-1,0,327.7158)" y1="148.24" x1="324.47"><stop stop-color="#C1E0F6" offset="0"/><stop stop-color="#64B3E3" offset="1"/></linearGradient><polygon opacity="0.8" stroke="#79c3ec" points="299.7,156.58,324.47,171.37,324.47,202.37,299.7,185.83" stroke-miterlimit="10" enable-background="new    " fill="url(#SVGID_1_)"/><linearGradient id="SVGID_2_" y2="168.28" gradientUnits="userSpaceOnUse" x2="333.6" gradientTransform="matrix(1,0,0,-1,0,327.7158)" y1="128.2" x1="340.67"><stop stop-color="#C1E0F6" offset="0"/><stop stop-color="#64B3E3" offset="1"/></linearGradient><polygon opacity="0.8" stroke="#79c3ec" points="349.8,185.94,349.8,156.58,324.53,171.72,324.47,202.37" stroke-miterlimit="10" enable-background="new    " fill="url(#SVGID_2_)"/><linearGradient id="SVGID_3_" y2="172.17" gradientUnits="userSpaceOnUse" x2="367.05" gradientTransform="matrix(1,0,0,-1,0,327.7158)" y1="172.17" x1="282"><stop stop-color="#C1E0F6" offset="0"/><stop stop-color="#64B3E3" offset="1"/></linearGradient><polygon opacity="0.9" stroke="#79c3ec" points="324.69,140.42,341.95,125.96,367.05,141.99,350.58,155.72,367.05,169.84,341.56,185.13,324.69,172.19,307.83,185.13,282,169.84,299.79,156.31,282,142.78,307.83,125.96" stroke-miterlimit="10" enable-background="new    " fill="url(#SVGID_3_)"/><linearGradient id="SVGID_4_" y2="180.95" gradientUnits="userSpaceOnUse" x2="310.8" gradientTransform="matrix(1,0,0,-1,0,327.7158)" y1="160.09" x1="328.94"><stop stop-color="#ECF8FE" offset="0"/><stop stop-color="#C7EAFA" offset="1"/></linearGradient><polygon opacity="0.7" points="300.1,156.07,324.75,141.18,324.53,171.46" enable-background="new    " fill="url(#SVGID_4_)"/><linearGradient id="SVGID_5_" y2="171.4" gradientUnits="userSpaceOnUse" x2="349.11" gradientTransform="matrix(1,0,0,-1,0,327.7158)" y1="171.4" x1="324.53"><stop stop-color="#ECF8FE" offset="0"/><stop stop-color="#C7EAFA" offset="1"/></linearGradient><polygon opacity="0.7" points="324.75,141.18,349.11,155.17,324.53,171.46" enable-background="new    " fill="url(#SVGID_5_)"/></g></g></svg>
